 <svg id="Layer_1" data-name="Layer 1" xmlns="http://www.w3.org/2000/svg" viewBox="0 0 1000 1000">
    <defs>
        <style>.cls-1 {fill: #6dc8c2;}.cls-2 {fill: #fff;}.cls-3 {fill: #ffbb45;}.cls-4 {fill: #ffc1eb;}.cls-5 {fill: #fb6d6d;}.cls-6 {fill: #c7b8f8;}</style>
    </defs>
    <path class="cls-1" d="M803.54,805.51,757.63,172.63c-3.45-47.51-57-73.47-96.47-46.73L136,482.1c-39.42,26.74-35.11,86.14,7.76,106.91l571,276.67C757.71,886.46,807,853,803.54,805.51Z" />
    <path d="M524.28,455c-34.65-1.14-63.6-27.7-68.49-62.85L443.51,304l46.18-6.44c3.48-.41,18.05-1.74,31.13,8.38,5.2,4,9.58,9.46,13.34,17.58,7.36,15.9,38.52,98.31,4.44,124.85A35.76,35.76,0,0,1,524.28,455Z" />
    <path d="M672.32,866.86H394.82l-22.42-338a555.42,555.42,0,0,1,122.07-37.41c60-11,107.52-11.46,150.47-6.12C654.08,612.78,663.17,739.41,672.32,866.86Z" />
    <path class="cls-2" d="M521.72,451.68l-11-30.19c10.83-.44,19.49-9.85,19.49-21.43,0-11.87-9.07-21.48-20.27-21.48a19.53,19.53,0,0,0-13,5l-20.71-56.91L391.32,354A31.46,31.46,0,0,0,371,393.6l23,71.47a43,43,0,0,0,54.05,27.72l12.35-5.52,10.32,22.06a4.59,4.59,0,0,0,2.18,2.23c17.93,8.62,37.94,6.51,50.26-5,8.51-7.93,13.22-15.07,14.58-19.74a4.58,4.58,0,0,0-.33-3.27Z" />
    <path d="M460.42,487.31l37.22-17a1.18,1.18,0,0,1,1.35,1.87l-30.4,32.6Z" />
    <path d="M508.24,408.94a7.27,7.27,0,1,1,7.26-7.27A7.27,7.27,0,0,1,508.24,408.94Zm0-10.53a3.27,3.27,0,1,0,3.26,3.26A3.26,3.26,0,0,0,508.24,398.41Z" />
    <path d="M503.12,404.89a2,2,0,0,1-2-1.77c-.51-4.33.48-7.83,2.94-10.42,4.62-4.87,12.72-4.42,13.06-4.4a2,2,0,0,1-.25,4h0c-.06,0-6.6-.35-9.92,3.16-1.62,1.71-2.22,4.06-1.86,7.2a2,2,0,0,1-1.75,2.21Z" />
    <path d="M429.43,460.9a16.31,16.31,0,0,1-7.45-1.7,2,2,0,0,1,2-3.46c.46.25,10.75,5.82,21.28-9.05a2,2,0,1,1,3.26,2.31C441.69,458.65,434.57,460.9,429.43,460.9Z" />
    <circle cx="441.71" cy="402.98" r="4.38" />
    <circle cx="390.44" cy="421.53" r="4.38" />
    <path d="M389.33,445.51c-10.05,0-19.38-8.1-21.79-19.65-2.72-13,4.35-25.52,15.75-27.91a19.82,19.82,0,0,1,16.19,3.93,25.83,25.83,0,0,1,9.43,15.33h0a25.8,25.8,0,0,1-2.5,17.82,19.8,19.8,0,0,1-13.26,10.09A19,19,0,0,1,389.33,445.51Zm-2.19-44a14.86,14.86,0,0,0-3,.32c-9.25,1.93-14.93,12.33-12.66,23.17s11.64,18.09,20.88,16.16a15.81,15.81,0,0,0,10.58-8.12A21.76,21.76,0,0,0,405,418h0a21.74,21.74,0,0,0-7.93-13A16.36,16.36,0,0,0,387.14,401.55Z" />
    <path d="M408.66,418a2,2,0,0,1-.61-3.9l18.06-5.82a2,2,0,0,1,1.22,3.8l-18.05,5.83A2.21,2.21,0,0,1,408.66,418Z" />
    <path d="M417.64,439.34a7,7,0,0,1-5.42-2.35c-2-2.43-1.66-5.76-.71-7.87a8.25,8.25,0,0,1,3.16-3.58l-8.23-22a2,2,0,0,1,3.74-1.4l9.6,25.59-2,.66a4.52,4.52,0,0,0-2.65,2.32c-.36.79-.79,2.57.12,3.65s3,1.4,4.94.15a2,2,0,1,1,2.19,3.34A8.74,8.74,0,0,1,417.64,439.34Z" />
    <ellipse cx="425.97" cy="327.04" rx="46.82" ry="34.67" transform="translate(-57.91 94.09) rotate(-11.81)" />
    <path d="M510.28,361.11l-25.09,6.52a26.61,26.61,0,0,1-32.44-19.06l-5.29-20.36L498.3,315Z" />
    <circle cx="369.4" cy="352.41" r="34.24" />
    <path d="M462.78,398.56a2,2,0,0,1-.74-3.86l37.44-15a2,2,0,1,1,1.48,3.71l-37.44,15A2.11,2.11,0,0,1,462.78,398.56Z" />
    <polygon class="cls-2" points="321.4 717.27 312.65 834.13 315.72 862.8 394.55 862.8 385.17 721.35 321.4 717.27" />
    <path d="M396.69,864.8H313.92l-3.27-30.64,8.91-119,67.49,4.31Zm-79.17-4h74.89l-9.12-137.57-60-3.84L314.66,834.1Z" />
    <path d="M372.4,528.87a61.17,61.17,0,0,0-9.65,4.94c-22.9,14.44-30.44,41-36.24,66.91-6.16,27.55-15.23,90.93-18.41,140.15,24.84,1.58,53.84,3.17,78.68,4.76Z" />
    <path d="M350.25,627.1H110.44a2,2,0,1,1,0-4H350.25a2,2,0,0,1,0,4Z" />
    <path d="M232.29,626H132.77a7.58,7.58,0,0,1-7.57-7.56V604.29a7.58,7.58,0,0,1,7.57-7.57h99.52a7.58,7.58,0,0,1,7.57,7.57v14.16A7.58,7.58,0,0,1,232.29,626Zm-99.52-25.29a3.57,3.57,0,0,0-3.57,3.57v14.16a3.57,3.57,0,0,0,3.57,3.56h99.52a3.57,3.57,0,0,0,3.57-3.56V604.29a3.57,3.57,0,0,0-3.57-3.57Z" />
    <rect class="cls-3" x="127.2" y="571.83" width="110.65" height="25.29" rx="5.57" />
    <path d="M258.42,625.5H244.25a7.57,7.57,0,0,1-7.56-7.56V535.53a7.57,7.57,0,0,1,7.56-7.56h14.17a7.57,7.57,0,0,1,7.56,7.56v82.41A7.57,7.57,0,0,1,258.42,625.5ZM244.25,532a3.57,3.57,0,0,0-3.56,3.56v82.41a3.57,3.57,0,0,0,3.56,3.56h14.17a3.57,3.57,0,0,0,3.56-3.56V535.53a3.57,3.57,0,0,0-3.56-3.56Z" />
    <rect class="cls-4" x="265.76" y="529.97" width="25.29" height="93.54" rx="5.57" />
    <path class="cls-2" d="M495.22,541.51a70.12,70.12,0,0,1-37.38-11.22,2,2,0,0,1,2.18-3.35c6.21,4,23,13.12,44.23,9.89,29.27-4.44,43.77-28.21,46.38-32.93a2,2,0,1,1,3.5,1.93c-2.77,5-18.16,30.23-49.28,34.95A63.36,63.36,0,0,1,495.22,541.51Z" />
    <rect class="cls-4" x="379.8" y="557.48" width="70.03" height="119.15" rx="11.32" transform="translate(-143.42 125.93) rotate(-14.75)" />
    <rect class="cls-2" x="419.54" y="569.44" width="9.92" height="29.6" rx="4.57" transform="translate(-117.53 107.02) rotate(-12.64)" />
    <path d="M445,424.66c-10,0-19.19-7.78-21.52-18.91C420.87,393.16,428,381,439.42,378.6s22.83,5.91,25.46,18.5h0c2.63,12.59-4.51,24.77-15.92,27.15A18.83,18.83,0,0,1,445,424.66Zm-1.65-42.47a15.12,15.12,0,0,0-3.13.32c-9.25,1.94-15,12-12.82,22.42s11.47,17.34,20.72,15.41,15-12,12.82-22.42h0C459,388.67,451.5,382.19,443.37,382.19Z" />
    <rect class="cls-2" x="580.74" y="263.15" width="126.38" height="121.36" rx="21.8" />
    <rect class="cls-4" x="606.54" y="298.99" width="74.77" height="66.01" rx="8.72" />
    <path class="cls-5" d="M681.31,322.58H606.54a2,2,0,0,1,0-4h74.77a2,2,0,0,1,0,4Z" />
    <path class="cls-5" d="M647,301h-3.1c-18.42,0-23.7-6.41-24.89-11.79a7,7,0,0,1,6.36-8.52c11.9-.81,20,16.74,20.35,17.49Zm-20.86-16.33h-.5a3,3,0,0,0-2.18,1.2,3,3,0,0,0-.54,2.47c1.11,5.06,7.33,8.05,17.64,8.57C637.71,291.92,632.21,284.66,626.17,284.66Z" />
    <path class="cls-5" d="M643.67,301h-3.1l1.28-2.82c.34-.75,8.45-18.3,20.35-17.49a7,7,0,0,1,6.36,8.52C667.37,294.58,662.09,301,643.67,301Zm17.76-16.33c-6,0-11.54,7.26-14.42,12.25,10.31-.52,16.53-3.51,17.64-8.57a3,3,0,0,0-.54-2.47,3,3,0,0,0-2.18-1.2Z" />
    <path class="cls-5" d="M663.85,336.12a2,2,0,0,1-1.73-1L643.49,303l-17.75,30.94a2,2,0,1,1-3.47-2l21.2-37,22.11,38.12a2,2,0,0,1-.73,2.73A1.92,1.92,0,0,1,663.85,336.12Z" />
    <path class="cls-5" d="M644.25,367a2,2,0,0,1-2-2V301.1a2,2,0,0,1,4,0V365A2,2,0,0,1,644.25,367Z" />
    <polygon class="cls-6" points="630.45 677.6 384.78 706.05 381.86 671.33 623.3 642.81 630.45 677.6" />
    <polygon class="cls-6" points="647.96 753.93 387.34 783.4 384.83 745.86 639.75 716.12 647.96 753.93" />
    <path class="cls-2" d="M468.92,633.9s-32.74,2.9-49.82-26.43a22.17,22.17,0,0,0-6.4-7c-4.49-3.16-11.21-5.14-18.15,2.79,0,0-11.28-14.93-19.61-6.4,0,0-5.94,7.53,2,20.22,0,0-12.69,5.27-.12,27.46,1.93,3.41,3.81,6.85,5.48,10.39,6.76,14.26,30.8,54.75,88.1,60.63a19.68,19.68,0,0,1,10.21,4.21L616.45,827.62a106.51,106.51,0,0,0,42.76,20.69c22.36,5,62.61,2.38,83.44-26.66a84.42,84.42,0,0,0,14.8-59.56l-6.31-51.3L638,729.33,523.79,657.72a25.43,25.43,0,0,1-9-9.77c-6.63-12.65-23.33-42-41.86-54.77-.64-.44-1.27-.87-1.89-1.33-4-3-9-5.48-14.05-5.56-8-.12-14.78,7.27-9.84,14.77,2.17,3.3,5.66,6,8.89,8.22a29.75,29.75,0,0,1,12.64,19.88A23.76,23.76,0,0,1,468.92,633.9Z" />
    <path d="M433.4,654.74a2,2,0,0,1-.88-.21,73,73,0,0,1-14.85-9.62c-15.39-12.91-22.12-29.52-25.06-41.18a2,2,0,0,1,3.88-1c2.79,11.09,9.18,26.87,23.75,39.1a68.79,68.79,0,0,0,14,9.09,2,2,0,0,1-.88,3.8Z" />
    <path d="M420.56,671.64a1.88,1.88,0,0,1-.89-.21,31,31,0,0,1-7.42-4.7c-.77-.62-1.74-1.39-3-2.41-15-11.61-26.78-27.7-34.14-46.53a2,2,0,1,1,3.72-1.46c7.11,18.16,18.47,33.66,32.87,44.83,1.33,1,2.31,1.82,3.09,2.45a27.2,27.2,0,0,0,6.71,4.25,2,2,0,0,1-.9,3.78Z" />
    <path d="M478.94,866.82H310.8V830.53H478.94a8.44,8.44,0,0,1,8.43,8.43V858.4A8.43,8.43,0,0,1,478.94,866.82Z" />
    <path d="M329.74,866.82H133.05a17,17,0,0,1-16.42-12L68.46,691.52c-3.12-10.58,5.07-21.12,16.42-21.12H270.4a17,17,0,0,1,16.66,12.92Z" />
    <circle class="cls-4" cx="186.89" cy="784.1" r="27.26" />
    <path class="cls-1" d="M180.9,764.65a2,2,0,0,1-1.94-1.53l-3.26-13.35a2,2,0,1,1,3.89-.95l3.25,13.35a2,2,0,0,1-1.94,2.48Z" />
    <path d="M773.37,709.41l-132.9,22.24-48.8-249.3,34.64.49A100.56,100.56,0,0,1,685.85,503a90.35,90.35,0,0,1,22.46,24.69A89.23,89.23,0,0,1,718,549.94Z" />
    <rect class="cls-2" x="667.05" y="421.53" width="182.11" height="129.41" rx="17.92" />
    <path d="M831.24,552.94H685A20,20,0,0,1,665.05,533V439.46A20,20,0,0,1,685,419.53H831.24a20,20,0,0,1,19.93,19.93V533A20,20,0,0,1,831.24,552.94ZM685,423.53a16,16,0,0,0-15.92,15.93V533A15.94,15.94,0,0,0,685,548.94H831.24A15.94,15.94,0,0,0,847.17,533V439.46a16,16,0,0,0-15.93-15.93Z" />
    <path d="M825.06,466.28H770.79a2,2,0,0,1,0-4h54.27a2,2,0,0,1,0,4Z" />
    <path d="M825.06,488.24H770.79a2,2,0,0,1,0-4h54.27a2,2,0,0,1,0,4Z" />
    <path d="M806.12,510.19H770.79a2,2,0,0,1,0-4h35.33a2,2,0,0,1,0,4Z" />
    <path class="cls-6" d="M709,455.75a9.29,9.29,0,0,0,18.56,0s19.08-3.13,19.34,24.25h-9.41v36.84H698.25V480H687.36S687.88,453.71,709,455.75Z" />
    <path d="M669.49,748.15a1.94,1.94,0,0,1-1-.25l-29.75-16.42a2,2,0,0,1,1.93-3.5l29.75,16.42a2,2,0,0,1-1,3.75Z" />
    <path d="M350.25,491.6H110.44a2,2,0,1,1,0-4H350.25a2,2,0,0,1,0,4Z" />
    <circle class="cls-2" cx="276.52" cy="451.18" r="35.53" />
    <path d="M204.08,490.07H153a17.83,17.83,0,0,1-17.81-17.81V398.83A17.83,17.83,0,0,1,153,381h51.11a17.83,17.83,0,0,1,17.81,17.81v73.43A17.83,17.83,0,0,1,204.08,490.07ZM153,385a13.83,13.83,0,0,0-13.81,13.81v73.43A13.82,13.82,0,0,0,153,486.07h51.11a13.83,13.83,0,0,0,13.81-13.81V398.83A13.83,13.83,0,0,0,204.08,385Z" />
    <path d="M218.83,463.69H137.16a2,2,0,0,1,0-4h81.67a2,2,0,0,1,0,4Z" />
    <circle class="cls-2" cx="170" cy="475.67" r="4.85" />
    <circle class="cls-2" cx="187.02" cy="475.67" r="4.85" />
    <path d="M269.07,424.94a2,2,0,0,1-1.95-1.58c-5.2-24,.67-40.42,6.51-50,6.38-10.41,14-15.06,14.29-15.25a2,2,0,0,1,2.06,3.43c-1.2.73-28.3,17.78-19,60.94a2,2,0,0,1-1.53,2.37A2.18,2.18,0,0,1,269.07,424.94Z" />
    <path class="cls-4" d="M314,361l-8.61-1.87c-.07-.47-.16-1-.27-1.41l7.52-4.22A6.81,6.81,0,0,0,306,341.66l-7.91,4.44c-.13.07-.23.16-.35.24-.38-.28-.77-.55-1.17-.8l1.74-8.05a6.8,6.8,0,1,0-13.3-2.87l-1.74,8a18.52,18.52,0,0,0-2,.38,9,9,0,0,0-.47-.78L275.34,335a6.8,6.8,0,1,0-10.86,8.19l5.46,7.25c0,.06.1.1.15.16-.19.26-.35.53-.53.79l-8.33-1.8a6.81,6.81,0,0,0-8.09,5.21h0a6.8,6.8,0,0,0,5.21,8.09l8.26,1.79c0,.2.05.4.08.6l-.07,0-7.92,4.44a6.81,6.81,0,0,0,6.66,11.87l7.92-4.44c.06,0,.1-.08.16-.11a19.93,19.93,0,0,0,2,1.47l-1.73,8a6.81,6.81,0,1,0,13.31,2.87l1.72-8c.5-.07,1-.16,1.49-.27l5.29,7A6.81,6.81,0,1,0,306.43,380l-4.7-6.25c.3-.41.59-.83.86-1.27l8.53,1.85a6.8,6.8,0,0,0,8.09-5.21h0A6.8,6.8,0,0,0,314,361Z" />
    <path class="cls-4" d="M314,361l-8.61-1.87c-.07-.47-.16-1-.27-1.41l7.52-4.22A6.81,6.81,0,0,0,306,341.66l-7.91,4.44c-.13.07-.23.16-.35.24-.38-.28-.77-.55-1.17-.8l1.74-8.05a6.8,6.8,0,1,0-13.3-2.87l-1.74,8a18.52,18.52,0,0,0-2,.38,9,9,0,0,0-.47-.78L275.34,335a6.8,6.8,0,1,0-10.86,8.19l5.46,7.25c0,.06.1.1.15.16-.19.26-.35.53-.53.79l-8.33-1.8a6.81,6.81,0,0,0-8.09,5.21h0a6.8,6.8,0,0,0,5.21,8.09l8.26,1.79c0,.2.05.4.08.6l-.07,0-7.92,4.44a6.81,6.81,0,0,0,6.66,11.87l7.92-4.44c.06,0,.1-.08.16-.11a19.93,19.93,0,0,0,2,1.47l-1.73,8a6.81,6.81,0,1,0,13.31,2.87l1.72-8c.5-.07,1-.16,1.49-.27l5.29,7A6.81,6.81,0,1,0,306.43,380l-4.7-6.25c.3-.41.59-.83.86-1.27l8.53,1.85a6.8,6.8,0,0,0,8.09-5.21h0A6.8,6.8,0,0,0,314,361Z" />
    <path class="cls-4" d="M314,361l-8.61-1.87c-.07-.47-.16-1-.27-1.41l7.52-4.22A6.81,6.81,0,0,0,306,341.66l-7.91,4.44c-.13.07-.23.16-.35.24-.38-.28-.77-.55-1.17-.8l1.74-8.05a6.8,6.8,0,1,0-13.3-2.87l-1.74,8a18.52,18.52,0,0,0-2,.38,9,9,0,0,0-.47-.78L275.34,335a6.8,6.8,0,1,0-10.86,8.19l5.46,7.25c0,.06.1.1.15.16-.19.26-.35.53-.53.79l-8.33-1.8a6.81,6.81,0,0,0-8.09,5.21h0a6.8,6.8,0,0,0,5.21,8.09l8.26,1.79c0,.2.05.4.08.6l-.07,0-7.92,4.44a6.81,6.81,0,0,0,6.66,11.87l7.92-4.44c.06,0,.1-.08.16-.11a19.93,19.93,0,0,0,2,1.47l-1.73,8a6.81,6.81,0,1,0,13.31,2.87l1.72-8c.5-.07,1-.16,1.49-.27l5.29,7A6.81,6.81,0,1,0,306.43,380l-4.7-6.25c.3-.41.59-.83.86-1.27l8.53,1.85a6.8,6.8,0,0,0,8.09-5.21h0A6.8,6.8,0,0,0,314,361Z" />
    <path class="cls-4" d="M314,361l-8.61-1.87c-.07-.47-.16-1-.27-1.41l7.52-4.22A6.81,6.81,0,0,0,306,341.66l-7.91,4.44c-.13.07-.23.16-.35.24-.38-.28-.77-.55-1.17-.8l1.74-8.05a6.8,6.8,0,1,0-13.3-2.87l-1.74,8a18.52,18.52,0,0,0-2,.38,9,9,0,0,0-.47-.78L275.34,335a6.8,6.8,0,1,0-10.86,8.19l5.46,7.25c0,.06.1.1.15.16-.19.26-.35.53-.53.79l-8.33-1.8a6.81,6.81,0,0,0-8.09,5.21h0a6.8,6.8,0,0,0,5.21,8.09l8.26,1.79c0,.2.05.4.08.6l-.07,0-7.92,4.44a6.81,6.81,0,0,0,6.66,11.87l7.92-4.44c.06,0,.1-.08.16-.11a19.93,19.93,0,0,0,2,1.47l-1.73,8a6.81,6.81,0,1,0,13.31,2.87l1.72-8c.5-.07,1-.16,1.49-.27l5.29,7A6.81,6.81,0,1,0,306.43,380l-4.7-6.25c.3-.41.59-.83.86-1.27l8.53,1.85a6.8,6.8,0,0,0,8.09-5.21h0A6.8,6.8,0,0,0,314,361Z" />
    <path class="cls-4" d="M314,361l-8.61-1.87c-.07-.47-.16-1-.27-1.41l7.52-4.22A6.81,6.81,0,0,0,306,341.66l-7.91,4.44c-.13.07-.23.16-.35.24-.38-.28-.77-.55-1.17-.8l1.74-8.05a6.8,6.8,0,1,0-13.3-2.87l-1.74,8a18.52,18.52,0,0,0-2,.38,9,9,0,0,0-.47-.78L275.34,335a6.8,6.8,0,1,0-10.86,8.19l5.46,7.25c0,.06.1.1.15.16-.19.26-.35.53-.53.79l-8.33-1.8a6.81,6.81,0,0,0-8.09,5.21h0a6.8,6.8,0,0,0,5.21,8.09l8.26,1.79c0,.2.05.4.08.6l-.07,0-7.92,4.44a6.81,6.81,0,0,0,6.66,11.87l7.92-4.44c.06,0,.1-.08.16-.11a19.93,19.93,0,0,0,2,1.47l-1.73,8a6.81,6.81,0,1,0,13.31,2.87l1.72-8c.5-.07,1-.16,1.49-.27l5.29,7A6.81,6.81,0,1,0,306.43,380l-4.7-6.25c.3-.41.59-.83.86-1.27l8.53,1.85a6.8,6.8,0,0,0,8.09-5.21h0A6.8,6.8,0,0,0,314,361Z" />
    <path class="cls-4" d="M314,361l-8.61-1.87c-.07-.47-.16-1-.27-1.41l7.52-4.22A6.81,6.81,0,0,0,306,341.66l-7.91,4.44c-.13.07-.23.16-.35.24-.38-.28-.77-.55-1.17-.8l1.74-8.05a6.8,6.8,0,1,0-13.3-2.87l-1.74,8a18.52,18.52,0,0,0-2,.38,9,9,0,0,0-.47-.78L275.34,335a6.8,6.8,0,1,0-10.86,8.19l5.46,7.25c0,.06.1.1.15.16-.19.26-.35.53-.53.79l-8.33-1.8a6.81,6.81,0,0,0-8.09,5.21h0a6.8,6.8,0,0,0,5.21,8.09l8.26,1.79c0,.2.05.4.08.6l-.07,0-7.92,4.44a6.81,6.81,0,0,0,6.66,11.87l7.92-4.44c.06,0,.1-.08.16-.11a19.93,19.93,0,0,0,2,1.47l-1.73,8a6.81,6.81,0,1,0,13.31,2.87l1.72-8c.5-.07,1-.16,1.49-.27l5.29,7A6.81,6.81,0,1,0,306.43,380l-4.7-6.25c.3-.41.59-.83.86-1.27l8.53,1.85a6.8,6.8,0,0,0,8.09-5.21h0A6.8,6.8,0,0,0,314,361Z" />
    <path class="cls-4" d="M314,361l-8.61-1.87c-.07-.47-.16-1-.27-1.41l7.52-4.22A6.81,6.81,0,0,0,306,341.66l-7.91,4.44c-.13.07-.23.16-.35.24-.38-.28-.77-.55-1.17-.8l1.74-8.05a6.8,6.8,0,1,0-13.3-2.87l-1.74,8a18.52,18.52,0,0,0-2,.38,9,9,0,0,0-.47-.78L275.34,335a6.8,6.8,0,1,0-10.86,8.19l5.46,7.25c0,.06.1.1.15.16-.19.26-.35.53-.53.79l-8.33-1.8a6.81,6.81,0,0,0-8.09,5.21h0a6.8,6.8,0,0,0,5.21,8.09l8.26,1.79c0,.2.05.4.08.6l-.07,0-7.92,4.44a6.81,6.81,0,0,0,6.66,11.87l7.92-4.44c.06,0,.1-.08.16-.11a19.93,19.93,0,0,0,2,1.47l-1.73,8a6.81,6.81,0,1,0,13.31,2.87l1.72-8c.5-.07,1-.16,1.49-.27l5.29,7A6.81,6.81,0,1,0,306.43,380l-4.7-6.25c.3-.41.59-.83.86-1.27l8.53,1.85a6.8,6.8,0,0,0,8.09-5.21h0A6.8,6.8,0,0,0,314,361Z" />
    <circle class="cls-2" cx="286.18" cy="362.02" r="9.01" />
    <ellipse cx="269.65" cy="425.85" rx="8.75" ry="7.14" transform="translate(-67.74 51.38) rotate(-9.68)" />
    <path d="M258.93,480.67a2,2,0,0,1-1.06-3.69,35.89,35.89,0,0,1,16.78-5.42,36.32,36.32,0,0,1,21,5.29,2,2,0,0,1-2.09,3.41,32.33,32.33,0,0,0-18.67-4.7A31.84,31.84,0,0,0,260,480.37,2.05,2.05,0,0,1,258.93,480.67Z" />
</svg>